ffmpeg started on 2025-05-28 at 11:18:49
Report written to "D:\Convert\FFMetrics\reports\ssim_report-6.txt"
Log level: 32
Command line:
ffmpeg -hide_banner -nostdin -i "G:\\\xc0\xed\xe8\xec\xe5\\\xce\xed\xe3\xee\xe8\xed\xe3\xe8\\!_36_\xce\xf1\xe5\xed\xfc_2024\\JamClub\\MF \xcf\xf0\xe8\xe7\xf0\xe0\xea\\\xd2\xc2-2\\[JamClub] MF Ghost 2 - 12_HEVC.mkv" -i "G:\\\xc0\xed\xe8\xec\xe5\\\xce\xed\xe3\xee\xe8\xed\xe3\xe8\\!_36_\xce\xf1\xe5\xed\xfc_2024\\JamClub\\MF \xcf\xf0\xe8\xe7\xf0\xe0\xea\\\xd2\xc2-2\\[JamClub] MF Ghost 2 - 12.mp4" -lavfi "[0:v]settb=AVTB,setpts=PTS-STARTPTS,format=pix_fmts=yuv420p10,fps=24000/1001,scale=1920:1080:flags=bicubic[main];[1:v]settb=AVTB,setpts=PTS-STARTPTS,format=pix_fmts=yuv420p,fps=24000/1001,scale=1920:1080:flags=bicubic[ref];[main][ref]ssim=eof_action=endall:stats_file='D\\:/Convert/FFMetrics/logs/ssim_logfile-6.txt'" -f null -
Input #0, matroska,webm, from 'G:\Аниме\Онгоинги\!_36_Осень_2024\JamClub\MF Призрак\ТВ-2\[JamClub] MF Ghost 2 - 12_HEVC.mkv':
  Metadata:
    COMPATIBLE_BRANDS: isomiso2avc1mp41
    MAJOR_BRAND     : isom
    MINOR_VERSION   : 512
    ENCODER         : Lavf61.7.100
  Duration: 00:24:02.45, start: -0.001000, bitrate: 2346 kb/s
  Stream #0:0: Video: hevc (Main 10), yuv420p10le(tv, bt709, progressive), 1920x1080 [SAR 1:1 DAR 16:9], 23.98 fps, 23.98 tbr, 1k tbn (default)
      Metadata:
        HANDLER_NAME    : VideoHandler
        VENDOR_ID       : [0][0][0][0]
        ENCODER         : Lavc61.19.100 libx265
        BPS             : 2145842
        DURATION        : 00:24:02.232708333
        NUMBER_OF_FRAMES: 34579
        NUMBER_OF_BYTES : 386850260
        _STATISTICS_WRITING_APP: mkvpropedit v66.0.0 ('Josie') 64-bit
        _STATISTICS_WRITING_DATE_UTC: 2025-05-27 14:45:50
        _STATISTICS_TAGS: BPS DURATION NUMBER_OF_FRAMES NUMBER_OF_BYTES
  Stream #0:1(eng): Audio: aac (LC), 48000 Hz, stereo, fltp (default)
      Metadata:
        HANDLER_NAME    : SoundHandler
        VENDOR_ID       : [0][0][0][0]
        ENCODER         : Lavc61.19.100 aac
        BPS             : 196915
        DURATION        : 00:24:02.413000000
        NUMBER_OF_FRAMES: 67614
        NUMBER_OF_BYTES : 35504207
        _STATISTICS_WRITING_APP: mkvpropedit v66.0.0 ('Josie') 64-bit
        _STATISTICS_WRITING_DATE_UTC: 2025-05-27 14:45:50
        _STATISTICS_TAGS: BPS DURATION NUMBER_OF_FRAMES NUMBER_OF_BYTES
Input #1, mov,mp4,m4a,3gp,3g2,mj2, from 'G:\Аниме\Онгоинги\!_36_Осень_2024\JamClub\MF Призрак\ТВ-2\[JamClub] MF Ghost 2 - 12.mp4':
  Metadata:
    major_brand     : isom
    minor_version   : 512
    compatible_brands: isomiso2avc1mp41
    encoder         : Lavf60.16.100
  Duration: 00:24:02.43, start: 0.000000, bitrate: 5209 kb/s
  Stream #1:0[0x1](und): Video: h264 (High) (avc1 / 0x31637661), yuv420p(progressive), 1920x1080 [SAR 1:1 DAR 16:9], 5012 kb/s, 23.98 fps, 23.98 tbr, 90k tbn (default)
      Metadata:
        handler_name    : VideoHandler
        vendor_id       : [0][0][0][0]
  Stream #1:1[0x2](eng): Audio: aac (LC) (mp4a / 0x6134706D), 48000 Hz, stereo, fltp, 191 kb/s (default)
      Metadata:
        handler_name    : SoundHandler
        vendor_id       : [0][0][0][0]
Stream mapping:
  Stream #0:0 (hevc) -> settb:default
  Stream #1:0 (h264) -> settb:default
  ssim:default -> Stream #0:0 (wrapped_avframe)
  Stream #0:1 -> #0:1 (aac (native) -> pcm_s16le (native))
Output #0, null, to 'pipe:':
  Metadata:
    COMPATIBLE_BRANDS: isomiso2avc1mp41
    MAJOR_BRAND     : isom
    MINOR_VERSION   : 512
    encoder         : Lavf61.7.100
  Stream #0:0: Video: wrapped_avframe, yuv420p10le(tv, bt709, progressive), 1920x1080 [SAR 1:1 DAR 16:9], q=2-31, 200 kb/s, 23.98 fps, 23.98 tbn
      Metadata:
        encoder         : Lavc61.19.100 wrapped_avframe
  Stream #0:1(eng): Audio: pcm_s16le, 48000 Hz, stereo, s16, 1536 kb/s (default)
      Metadata:
        HANDLER_NAME    : SoundHandler
        VENDOR_ID       : [0][0][0][0]
        _STATISTICS_TAGS: BPS DURATION NUMBER_OF_FRAMES NUMBER_OF_BYTES
        BPS             : 196915
        DURATION        : 00:24:02.413000000
        NUMBER_OF_FRAMES: 67614
        NUMBER_OF_BYTES : 35504207
        _STATISTICS_WRITING_APP: mkvpropedit v66.0.0 ('Josie') 64-bit
        _STATISTICS_WRITING_DATE_UTC: 2025-05-27 14:45:50
        encoder         : Lavc61.19.100 pcm_s16le
frame=  111 fps=0.0 q=-0.0 size=N/A time=00:00:04.62 bitrate=N/A speed=9.01x    frame=  272 fps=261 q=-0.0 size=N/A time=00:00:11.34 bitrate=N/A speed=10.9x    frame=  473 fps=305 q=-0.0 size=N/A time=00:00:19.72 bitrate=N/A speed=12.7x    frame=  719 fps=348 q=-0.0 size=N/A time=00:00:29.98 bitrate=N/A speed=14.5x    frame=  970 fps=377 q=-0.0 size=N/A time=00:00:40.45 bitrate=N/A speed=15.7x    frame= 1261 fps=407 q=-0.0 size=N/A time=00:00:52.59 bitrate=N/A speed=  17x    frame= 1548 fps=428 q=-0.0 size=N/A time=00:01:04.56 bitrate=N/A speed=17.8x    frame= 1804 fps=437 q=-0.0 size=N/A time=00:01:15.24 bitrate=N/A speed=18.2x    frame= 2086 fps=449 q=-0.0 size=N/A time=00:01:27.00 bitrate=N/A speed=18.7x    frame= 2356 fps=456 q=-0.0 size=N/A time=00:01:38.26 bitrate=N/A speed=  19x    frame= 2618 fps=462 q=-0.0 size=N/A time=00:01:49.19 bitrate=N/A speed=19.3x    frame= 2904 fps=469 q=-0.0 size=N/A time=00:02:01.12 bitrate=N/A speed=19.6x    frame= 3034 fps=453 q=-0.0 size=N/A time=00:02:06.54 bitrate=N/A speed=18.9x    frame= 3197 fps=443 q=-0.0 size=N/A time=00:02:13.34 bitrate=N/A speed=18.5x    frame= 3375 fps=436 q=-0.0 size=N/A time=00:02:20.76 bitrate=N/A speed=18.2x    frame= 3564 fps=432 q=-0.0 size=N/A time=00:02:28.64 bitrate=N/A speed=  18x    frame= 3755 fps=428 q=-0.0 size=N/A time=00:02:36.61 bitrate=N/A speed=17.9x    frame= 3942 fps=425 q=-0.0 size=N/A time=00:02:44.41 bitrate=N/A speed=17.7x    frame= 4145 fps=423 q=-0.0 size=N/A time=00:02:52.88 bitrate=N/A speed=17.6x    frame= 4316 fps=418 q=-0.0 size=N/A time=00:03:00.01 bitrate=N/A speed=17.4x    frame= 4462 fps=412 q=-0.0 size=N/A time=00:03:06.10 bitrate=N/A speed=17.2x    frame= 4615 fps=407 q=-0.0 size=N/A time=00:03:12.48 bitrate=N/A speed=  17x    frame= 4781 fps=403 q=-0.0 size=N/A time=00:03:19.40 bitrate=N/A speed=16.8x    frame= 4929 fps=398 q=-0.0 size=N/A time=00:03:25.58 bitrate=N/A speed=16.6x    frame= 5055 fps=392 q=-0.0 size=N/A time=00:03:30.83 bitrate=N/A speed=16.4x    frame= 5213 fps=389 q=-0.0 size=N/A time=00:03:37.42 bitrate=N/A speed=16.2x    frame= 5374 fps=386 q=-0.0 size=N/A time=00:03:44.14 bitrate=N/A speed=16.1x    frame= 5613 fps=389 q=-0.0 size=N/A time=00:03:54.10 bitrate=N/A speed=16.2x    frame= 5847 fps=391 q=-0.0 size=N/A time=00:04:03.86 bitrate=N/A speed=16.3x    frame= 6094 fps=394 q=-0.0 size=N/A time=00:04:14.17 bitrate=N/A speed=16.4x    frame= 6375 fps=399 q=-0.0 size=N/A time=00:04:25.89 bitrate=N/A speed=16.6x    frame= 6574 fps=398 q=-0.0 size=N/A time=00:04:34.19 bitrate=N/A speed=16.6x    frame= 6731 fps=395 q=-0.0 size=N/A time=00:04:40.73 bitrate=N/A speed=16.5x    frame= 6966 fps=397 q=-0.0 size=N/A time=00:04:50.54 bitrate=N/A speed=16.6x    frame= 7219 fps=400 q=-0.0 size=N/A time=00:05:01.09 bitrate=N/A speed=16.7x    frame= 7471 fps=403 q=-0.0 size=N/A time=00:05:11.60 bitrate=N/A speed=16.8x    frame= 7727 fps=405 q=-0.0 size=N/A time=00:05:22.28 bitrate=N/A speed=16.9x    frame= 7980 fps=407 q=-0.0 size=N/A time=00:05:32.83 bitrate=N/A speed=  17x    frame= 8200 fps=408 q=-0.0 size=N/A time=00:05:42.00 bitrate=N/A speed=  17x    frame= 8425 fps=409 q=-0.0 size=N/A time=00:05:51.39 bitrate=N/A speed=  17x    frame= 8669 fps=410 q=-0.0 size=N/A time=00:06:01.56 bitrate=N/A speed=17.1x    frame= 8902 fps=411 q=-0.0 size=N/A time=00:06:11.28 bitrate=N/A speed=17.1x    frame= 9130 fps=412 q=-0.0 size=N/A time=00:06:20.79 bitrate=N/A speed=17.2x    frame= 9348 fps=412 q=-0.0 size=N/A time=00:06:29.88 bitrate=N/A speed=17.2x    frame= 9566 fps=412 q=-0.0 size=N/A time=00:06:38.98 bitrate=N/A speed=17.2x    frame= 9794 fps=413 q=-0.0 size=N/A time=00:06:48.49 bitrate=N/A speed=17.2x    frame=10060 fps=415 q=-0.0 size=N/A time=00:06:59.58 bitrate=N/A speed=17.3x    frame=10314 fps=417 q=-0.0 size=N/A time=00:07:10.17 bitrate=N/A speed=17.4x    frame=10528 fps=417 q=-0.0 size=N/A time=00:07:19.10 bitrate=N/A speed=17.4x    frame=10764 fps=417 q=-0.0 size=N/A time=00:07:28.94 bitrate=N/A speed=17.4x    frame=10971 fps=417 q=-0.0 size=N/A time=00:07:37.58 bitrate=N/A speed=17.4x    frame=11172 fps=417 q=-0.0 size=N/A time=00:07:45.96 bitrate=N/A speed=17.4x    frame=11378 fps=416 q=-0.0 size=N/A time=00:07:54.55 bitrate=N/A speed=17.4x    frame=11562 fps=415 q=-0.0 size=N/A time=00:08:02.23 bitrate=N/A speed=17.3x    frame=11764 fps=415 q=-0.0 size=N/A time=00:08:10.65 bitrate=N/A speed=17.3x    frame=11958 fps=414 q=-0.0 size=N/A time=00:08:18.74 bitrate=N/A speed=17.3x    frame=12154 fps=414 q=-0.0 size=N/A time=00:08:26.92 bitrate=N/A speed=17.2x    frame=12364 fps=413 q=-0.0 size=N/A time=00:08:35.68 bitrate=N/A speed=17.2x    frame=12578 fps=413 q=-0.0 size=N/A time=00:08:44.60 bitrate=N/A speed=17.2x    frame=12817 fps=414 q=-0.0 size=N/A time=00:08:54.57 bitrate=N/A speed=17.3x    frame=13004 fps=413 q=-0.0 size=N/A time=00:09:02.37 bitrate=N/A speed=17.2x    frame=13218 fps=413 q=-0.0 size=N/A time=00:09:11.30 bitrate=N/A speed=17.2x    frame=13423 fps=413 q=-0.0 size=N/A time=00:09:19.85 bitrate=N/A speed=17.2x    frame=13605 fps=412 q=-0.0 size=N/A time=00:09:27.44 bitrate=N/A speed=17.2x    frame=13834 fps=413 q=-0.0 size=N/A time=00:09:36.99 bitrate=N/A speed=17.2x    frame=14058 fps=413 q=-0.0 size=N/A time=00:09:46.33 bitrate=N/A speed=17.2x    frame=14315 fps=414 q=-0.0 size=N/A time=00:09:57.05 bitrate=N/A speed=17.3x    frame=14497 fps=414 q=-0.0 size=N/A time=00:10:04.64 bitrate=N/A speed=17.2x    frame=14720 fps=414 q=-0.0 size=N/A time=00:10:13.94 bitrate=N/A speed=17.3x    frame=14888 fps=413 q=-0.0 size=N/A time=00:10:20.95 bitrate=N/A speed=17.2x    frame=15080 fps=412 q=-0.0 size=N/A time=00:10:28.96 bitrate=N/A speed=17.2x    frame=15303 fps=412 q=-0.0 size=N/A time=00:10:38.26 bitrate=N/A speed=17.2x    frame=15513 fps=412 q=-0.0 size=N/A time=00:10:47.02 bitrate=N/A speed=17.2x    frame=15691 fps=411 q=-0.0 size=N/A time=00:10:54.44 bitrate=N/A speed=17.2x    frame=15866 fps=410 q=-0.0 size=N/A time=00:11:01.74 bitrate=N/A speed=17.1x    frame=16112 fps=411 q=-0.0 size=N/A time=00:11:12.00 bitrate=N/A speed=17.1x    frame=16339 fps=411 q=-0.0 size=N/A time=00:11:21.47 bitrate=N/A speed=17.2x    frame=16538 fps=411 q=-0.0 size=N/A time=00:11:29.77 bitrate=N/A speed=17.2x    frame=16720 fps=411 q=-0.0 size=N/A time=00:11:37.36 bitrate=N/A speed=17.1x    frame=16916 fps=410 q=-0.0 size=N/A time=00:11:45.53 bitrate=N/A speed=17.1x    frame=17182 fps=411 q=-0.0 size=N/A time=00:11:56.63 bitrate=N/A speed=17.2x    frame=17447 fps=413 q=-0.0 size=N/A time=00:12:07.68 bitrate=N/A speed=17.2x    frame=17676 fps=413 q=-0.0 size=N/A time=00:12:17.23 bitrate=N/A speed=17.2x    frame=17919 fps=414 q=-0.0 size=N/A time=00:12:27.37 bitrate=N/A speed=17.3x    frame=18116 fps=413 q=-0.0 size=N/A time=00:12:35.58 bitrate=N/A speed=17.2x    frame=18325 fps=413 q=-0.0 size=N/A time=00:12:44.30 bitrate=N/A speed=17.2x    frame=18493 fps=412 q=-0.0 size=N/A time=00:12:51.31 bitrate=N/A speed=17.2x    frame=18692 fps=412 q=-0.0 size=N/A time=00:12:59.61 bitrate=N/A speed=17.2x    frame=18900 fps=412 q=-0.0 size=N/A time=00:13:08.28 bitrate=N/A speed=17.2x    frame=19091 fps=411 q=-0.0 size=N/A time=00:13:16.25 bitrate=N/A speed=17.2x    frame=19329 fps=412 q=-0.0 size=N/A time=00:13:26.18 bitrate=N/A speed=17.2x    frame=19591 fps=413 q=-0.0 size=N/A time=00:13:37.10 bitrate=N/A speed=17.2x    frame=19839 fps=414 q=-0.0 size=N/A time=00:13:47.45 bitrate=N/A speed=17.3x    frame=20080 fps=414 q=-0.0 size=N/A time=00:13:57.50 bitrate=N/A speed=17.3x    frame=20308 fps=415 q=-0.0 size=N/A time=00:14:07.01 bitrate=N/A speed=17.3x    frame=20494 fps=414 q=-0.0 size=N/A time=00:14:14.77 bitrate=N/A speed=17.3x    frame=20737 fps=415 q=-0.0 size=N/A time=00:14:24.90 bitrate=N/A speed=17.3x    frame=20983 fps=415 q=-0.0 size=N/A time=00:14:35.16 bitrate=N/A speed=17.3x    frame=21170 fps=415 q=-0.0 size=N/A time=00:14:42.96 bitrate=N/A speed=17.3x    frame=21373 fps=414 q=-0.0 size=N/A time=00:14:51.43 bitrate=N/A speed=17.3x    frame=21555 fps=414 q=-0.0 size=N/A time=00:14:59.02 bitrate=N/A speed=17.3x    frame=21730 fps=413 q=-0.0 size=N/A time=00:15:06.32 bitrate=N/A speed=17.2x    frame=21941 fps=413 q=-0.0 size=N/A time=00:15:15.12 bitrate=N/A speed=17.2x    frame=22184 fps=414 q=-0.0 size=N/A time=00:15:25.25 bitrate=N/A speed=17.3x    frame=22455 fps=415 q=-0.0 size=N/A time=00:15:36.56 bitrate=N/A speed=17.3x    frame=22665 fps=415 q=-0.0 size=N/A time=00:15:45.31 bitrate=N/A speed=17.3x    frame=22864 fps=414 q=-0.0 size=N/A time=00:15:53.61 bitrate=N/A speed=17.3x    frame=23022 fps=413 q=-0.0 size=N/A time=00:16:00.20 bitrate=N/A speed=17.2x    frame=23198 fps=413 q=-0.0 size=N/A time=00:16:07.54 bitrate=N/A speed=17.2x    frame=23364 fps=412 q=-0.0 size=N/A time=00:16:14.47 bitrate=N/A speed=17.2x    frame=23599 fps=412 q=-0.0 size=N/A time=00:16:24.27 bitrate=N/A speed=17.2x    frame=23837 fps=413 q=-0.0 size=N/A time=00:16:34.20 bitrate=N/A speed=17.2x    frame=24092 fps=413 q=-0.0 size=N/A time=00:16:44.83 bitrate=N/A speed=17.2x    frame=24310 fps=414 q=-0.0 size=N/A time=00:16:53.92 bitrate=N/A speed=17.3x    frame=24519 fps=413 q=-0.0 size=N/A time=00:17:02.64 bitrate=N/A speed=17.2x    frame=24706 fps=413 q=-0.0 size=N/A time=00:17:10.44 bitrate=N/A speed=17.2x    frame=24924 fps=413 q=-0.0 size=N/A time=00:17:19.53 bitrate=N/A speed=17.2x    frame=25112 fps=413 q=-0.0 size=N/A time=00:17:27.37 bitrate=N/A speed=17.2x    frame=25321 fps=413 q=-0.0 size=N/A time=00:17:36.09 bitrate=N/A speed=17.2x    frame=25495 fps=412 q=-0.0 size=N/A time=00:17:43.35 bitrate=N/A speed=17.2x    frame=25668 fps=411 q=-0.0 size=N/A time=00:17:50.56 bitrate=N/A speed=17.2x    frame=25867 fps=411 q=-0.0 size=N/A time=00:17:58.86 bitrate=N/A speed=17.2x    frame=26063 fps=411 q=-0.0 size=N/A time=00:18:07.04 bitrate=N/A speed=17.1x    frame=26249 fps=411 q=-0.0 size=N/A time=00:18:14.80 bitrate=N/A speed=17.1x    frame=26447 fps=410 q=-0.0 size=N/A time=00:18:23.06 bitrate=N/A speed=17.1x    frame=26609 fps=410 q=-0.0 size=N/A time=00:18:29.81 bitrate=N/A speed=17.1x    frame=26807 fps=409 q=-0.0 size=N/A time=00:18:38.07 bitrate=N/A speed=17.1x    frame=27019 fps=409 q=-0.0 size=N/A time=00:18:46.91 bitrate=N/A speed=17.1x    frame=27278 fps=410 q=-0.0 size=N/A time=00:18:57.71 bitrate=N/A speed=17.1x    frame=27541 fps=411 q=-0.0 size=N/A time=00:19:08.68 bitrate=N/A speed=17.1x    frame=27789 fps=411 q=-0.0 size=N/A time=00:19:19.03 bitrate=N/A speed=17.2x    frame=27965 fps=411 q=-0.0 size=N/A time=00:19:26.37 bitrate=N/A speed=17.1x    frame=28162 fps=411 q=-0.0 size=N/A time=00:19:34.59 bitrate=N/A speed=17.1x    frame=28365 fps=411 q=-0.0 size=N/A time=00:19:43.05 bitrate=N/A speed=17.1x    frame=28557 fps=410 q=-0.0 size=N/A time=00:19:51.06 bitrate=N/A speed=17.1x    frame=28757 fps=410 q=-0.0 size=N/A time=00:19:59.40 bitrate=N/A speed=17.1x    frame=28902 fps=409 q=-0.0 size=N/A time=00:20:05.45 bitrate=N/A speed=17.1x    frame=29067 fps=408 q=-0.0 size=N/A time=00:20:12.33 bitrate=N/A speed=  17x    frame=29247 fps=408 q=-0.0 size=N/A time=00:20:19.84 bitrate=N/A speed=  17x    frame=29458 fps=408 q=-0.0 size=N/A time=00:20:28.64 bitrate=N/A speed=  17x    frame=29653 fps=408 q=-0.0 size=N/A time=00:20:36.77 bitrate=N/A speed=  17x    frame=29857 fps=408 q=-0.0 size=N/A time=00:20:45.28 bitrate=N/A speed=  17x    frame=30082 fps=408 q=-0.0 size=N/A time=00:20:54.67 bitrate=N/A speed=  17x    frame=30289 fps=408 q=-0.0 size=N/A time=00:21:03.30 bitrate=N/A speed=  17x    frame=30496 fps=408 q=-0.0 size=N/A time=00:21:11.93 bitrate=N/A speed=  17x    frame=30709 fps=408 q=-0.0 size=N/A time=00:21:20.82 bitrate=N/A speed=  17x    frame=30925 fps=408 q=-0.0 size=N/A time=00:21:29.83 bitrate=N/A speed=  17x    frame=31157 fps=408 q=-0.0 size=N/A time=00:21:39.50 bitrate=N/A speed=  17x    frame=31339 fps=408 q=-0.0 size=N/A time=00:21:47.09 bitrate=N/A speed=  17x    frame=31525 fps=408 q=-0.0 size=N/A time=00:21:54.85 bitrate=N/A speed=  17x    frame=31757 fps=408 q=-0.0 size=N/A time=00:22:04.53 bitrate=N/A speed=  17x    frame=31974 fps=408 q=-0.0 size=N/A time=00:22:13.58 bitrate=N/A speed=  17x    frame=32189 fps=408 q=-0.0 size=N/A time=00:22:22.54 bitrate=N/A speed=  17x    frame=32405 fps=408 q=-0.0 size=N/A time=00:22:31.55 bitrate=N/A speed=  17x    frame=32628 fps=408 q=-0.0 size=N/A time=00:22:40.85 bitrate=N/A speed=  17x    frame=32855 fps=408 q=-0.0 size=N/A time=00:22:50.32 bitrate=N/A speed=  17x    frame=33056 fps=408 q=-0.0 size=N/A time=00:22:58.71 bitrate=N/A speed=  17x    frame=33313 fps=409 q=-0.0 size=N/A time=00:23:09.42 bitrate=N/A speed=  17x    frame=33501 fps=408 q=-0.0 size=N/A time=00:23:17.27 bitrate=N/A speed=  17x    frame=33724 fps=409 q=-0.0 size=N/A time=00:23:26.57 bitrate=N/A speed=  17x    frame=33928 fps=409 q=-0.0 size=N/A time=00:23:35.08 bitrate=N/A speed=  17x    frame=34123 fps=408 q=-0.0 size=N/A time=00:23:43.21 bitrate=N/A speed=  17x    frame=34333 fps=408 q=-0.0 size=N/A time=00:23:51.97 bitrate=N/A speed=  17x    frame=34543 fps=408 q=-0.0 size=N/A time=00:24:00.73 bitrate=N/A speed=  17x    [Parsed_ssim_10 @ 000001bd26769180] SSIM Y:0.992598 (21.306413) U:0.993428 (21.823225) V:0.993601 (21.938630) All:0.992903 (21.489485)
[out#0/null @ 000001bd1092ce40] video:14858KiB audio:270456KiB subtitle:0KiB other streams:0KiB global headers:0KiB muxing overhead: unknown
frame=34579 fps=408 q=-0.0 Lsize=N/A time=00:24:02.23 bitrate=N/A speed=  17x    
